# xmcd
#
# Track frame offsets: 
#        150
#        11413
#        23432
#        33529
#        43889
#        54039
#        64043
#        72029
#        81063
#        90963
#        102306
#        112134
#        122687
#        135221
#        147221
#        160121
#
# Disc length: 2291 seconds
#
# Revision: 1
# Processed by: cddbd v1.5.2PL0 Copyright (c) Steve Scherf et al.
# Submitted via: ExactAudioCopy v0.95b3
#
DISCID=bf08f110
DTITLE=Wanda Jackson - Let's Have A Party! (The Very Best Of Wanda Jac
DTITLE=kson)
DYEAR=2011
DGENRE=Country
TTITLE0=I Gotta Know
TTITLE1=Hot Dog! That Made Him Mad
TTITLE2=Don'a Wan'a
TTITLE3=Cool Love
TTITLE4=Fujiyama Mama
TTITLE5=Mean Mean Man
TTITLE6=Rock Your Baby
TTITLE7=Hard Headed Woman
TTITLE8=Let's Have A Party
TTITLE9=Riot In Cell Block #9
TTITLE10=Funnel Of Love
TTITLE11=Rip It Up
TTITLE12=Whole Lot Of Shakin' Goin' On
TTITLE13=Rigth Or Wrong
TTITLE14=Blue Yodel #6
TTITLE15=In The Middle Of A Heartache
EXTD=
EXTT0=
EXTT1=
EXTT2=
EXTT3=
EXTT4=
EXTT5=
EXTT6=
EXTT7=
EXTT8=
EXTT9=
EXTT10=
EXTT11=
EXTT12=
EXTT13=
EXTT14=
EXTT15=
PLAYORDER=
